<svg xmlns="http://www.w3.org/2000/svg" style="display:none;">
	<symbol id="icon-location" viewBox="0 0 24 24">
		<path d="M12 2a7 7 0 0 0-7 7c0 5.25 7 13 7 13s7-7.75 7-13a7 7 0 0 0-7-7zm0 9.5A2.5 2.5 0 1 1 12 6a2.5 2.5 0 0 1 0 5.5z"/>
	</symbol>

	<symbol id="icon-phone" viewBox="0 0 24 24">
		<path d="M6.62 10.79a15.05 15.05 0 0 0 6.59 6.59l2.2-2.2a1 1 0 0 1 1-.24 11.36 11.36 0 0 0 3.58.57 1 1 0 0 1 1 1V20a1 1 0 0 1-1 1A17 17 0 0 1 3 4a1 1 0 0 1 1-1h3.5a1 1 0 0 1 1 1 11.36 11.36 0 0 0 .57 3.58 1 1 0 0 1-.24 1z"/>
	</symbol>

	<symbol id="icon-mail" viewBox="0 0 24 24">
		<path d="M4 4h16a2 2 0 0 1 2 2v12a2 2 0 0 1-2 2H4a2 2 0 0 1-2-2V6a2 2 0 0 1 2-2zm8 7 8-5H4zm0 2-8-5v10h16V8z"/>
	</symbol>

	<symbol id="icon-calendar" viewBox="0 0 24 24">
		<path d="M7 2h2v2h6V2h2v2h3a2 2 0 0 1 2 2v14a2 2 0 0 1-2 2H4a2 2 0 0 1-2-2V6a2 2 0 0 1 2-2h3zm13 8H4v10h16z"/>
	</symbol>

	<symbol id="icon-users" viewBox="0 0 24 24">
		<path d="M16 11a4 4 0 1 0-4-4 4 4 0 0 0 4 4zm-8 1a3 3 0 1 0-3-3 3 3 0 0 0 3 3zm8 2c-2.67 0-8 1.34-8 4v2h16v-2c0-2.66-5.33-4-8-4zM8 14c-.29 0-.62.02-.97.05C4.64 14.29 2 15.28 2 17v1h6v-.05A5.66 5.66 0 0 1 10.38 14 8.78 8.78 0 0 0 8 14z"/>
	</symbol>

	<symbol id="icon-star" viewBox="0 0 24 24">
		<path d="M12 17.27L18.18 21l-1.64-7.03L22 9.24l-7.19-.61L12 2 9.19 8.63 2 9.24l5.46 4.73L5.82 21z"/>
	</symbol>
</svg>