<svg xmlns="http://www.w3.org/2000/svg" viewBox="0 0 32 32">
  <path d="M16 3C8.82 3 3 8.73 3 15.8c0 2.54.75 5 2.16 7.1L3.75 29l6.34-1.65A13.1 13.1 0 0 0 16 28.6c7.18 0 13-5.73 13-12.8S23.18 3 16 3zm0 23.4c-1.93 0-3.82-.5-5.47-1.44l-.4-.23-3.76.98 1-3.64-.26-.38a10.42 10.42 0 0 1-1.63-5.6C5.48 10.34 10.2 5.7 16 5.7s10.52 4.64 10.52 10.4S21.8 26.4 16 26.4zm5.77-7.8c-.32-.16-1.87-.92-2.16-1.02-.29-.1-.5-.16-.7.16-.2.32-.8 1.02-.98 1.23-.18.2-.36.24-.68.08-.32-.16-1.33-.48-2.53-1.53-.93-.82-1.55-1.82-1.73-2.14-.18-.32-.02-.5.14-.66.14-.14.32-.36.48-.54.16-.18.22-.32.34-.54.12-.22.06-.4-.02-.56-.08-.16-.7-1.67-.96-2.28-.25-.6-.5-.52-.7-.53h-.6c-.2 0-.54.08-.82.4-.28.32-1.08 1.05-1.08 2.55s1.1 2.95 1.26 3.15c.16.2 2.15 3.4 5.32 4.62.75.28 1.33.44 1.79.56.75.19 1.43.16 1.97.1.6-.07 1.87-.76 2.13-1.5.26-.74.26-1.37.18-1.5-.08-.13-.3-.2-.62-.36z"/>
</svg>